<?xml version="1.0" encoding="utf-8"?>
<!-- Generator: Adobe Illustrator 25.4.1, SVG Export Plug-In . SVG Version: 6.00 Build 0)  -->
<svg version="1.1" id="Layer_1" xmlns="http://www.w3.org/2000/svg" xmlns:xlink="http://www.w3.org/1999/xlink" x="0px" y="0px"
	 viewBox="0 0 374 128.2" style="enable-background:new 0 0 374 128.2;" xml:space="preserve">
<style type="text/css">
	.st0{fill:#EC2226;}
</style>
<g>
	<g>
		<g>
			<g>
				<polygon class="st0" points="281.4,8.2 281.4,73.1 294.7,73.1 294.7,45.8 306.2,45.8 306.2,73.1 319.4,73.1 319.4,8.2 
					306.2,8.2 306.2,34 294.7,34 294.7,8.2 				"/>
				<polygon class="st0" points="178.9,8.2 178.9,73.1 191.1,73.1 191.1,31.8 198.3,73.1 206.4,73.1 213.6,31.8 213.6,73.1 
					225.8,73.1 225.8,8.2 207.7,8.2 202.4,39.4 197,8.2 				"/>
				<polygon class="st0" points="102.5,8.2 110.6,37.2 118.7,8.2 131.9,8.2 117.7,51.8 117.7,73.1 103.6,73.1 103.6,51.8 89.3,8.2 
									"/>
				<path class="st0" d="M160,8.2h-17.6l-11.5,64.9H144l2.2-15.4h9.9l2.2,15.4h13.2L160,8.2z M151.2,22.8l3.3,23h-6.6L151.2,22.8z"
					/>
				<path class="st0" d="M262.4,8.2h-17.6l-11.5,64.9h13.1l2.2-15.4h9.9l2.2,15.4H274L262.4,8.2z M253.6,22.8l3.3,23h-6.6
					L253.6,22.8z"/>
				<path class="st0" d="M356.1,8.2h-17.6L327,73.1h13.1l2.2-15.4h9.9l2.2,15.4h13.2L356.1,8.2z M347.3,22.8l3.3,23H344L347.3,22.8z
					"/>
			</g>
		</g>
		<g>
			<g>
				<path class="st0" d="M44.7,2.2C23.5,2.2,6.3,19.3,6.3,40.5c0,21.2,17.2,38.3,38.3,38.3C65.8,78.9,83,61.7,83,40.5
					C83,19.3,65.8,2.2,44.7,2.2z M76,59.4l-5.3-1.2C65,66.6,55.5,72,44.7,72c-10.8,0-20.4-5.5-26-13.8l-5.3,1.2
					c-0.3,0-0.6-0.1-0.8-0.4c-0.2-0.3-0.1-0.6,0-0.9l3.6-4c-2-4.1-3.1-8.8-3.1-13.7c0-16.6,12.9-30.2,29.1-31.4L43.9,4
					c0.1-0.3,0.4-0.5,0.7-0.5c0.3,0,0.6,0.2,0.7,0.5L47,9.1c16.3,1.2,29.1,14.8,29.1,31.4c0,4.9-1.1,9.5-3.1,13.7l3.6,4
					c0.2,0.2,0.2,0.6,0.1,0.9C76.6,59.3,76.3,59.4,76,59.4z"/>
			</g>
			<g>
				<path class="st0" d="M76,58.4l-7.9-8.5c-1.1,0.5-2.4,0.4-3.5-0.2c-1.1-0.6-1.8-1.8-1.9-2.9l0,0c-0.2-1.8-1.2-3.4-2.9-4.4
					l-3.2-1.9l14.3-8.3l-1.6-2.7l-15.9,9.2l-2.8-1.6v-3.2l15.9-9.2L64.9,22l-14.3,8.3v-3.7c0-1.9-0.9-3.7-2.4-4.7l0,0
					c-1-0.7-1.6-1.9-1.6-3.2c0-1.3,0.6-2.4,1.6-3.2l0,0L44.9,4.4c0-0.1-0.1-0.2-0.2-0.2c-0.1,0-0.2,0.1-0.2,0.2l-3.4,11.1
					c1,0.7,1.6,1.9,1.6,3.2c0,1.3-0.6,2.4-1.6,3.2l0,0c-1.4,1.1-2.4,2.8-2.4,4.7v3.7L24.4,22l-1.6,2.7l15.9,9.2v3.2L36,38.7
					l-15.9-9.2l-1.6,2.7l14.3,8.3l-3.2,1.9l0,0c-1.7,1-2.7,2.6-2.9,4.4l0,0c-0.1,1.2-0.8,2.3-1.9,2.9c-1.1,0.6-2.4,0.7-3.5,0.2l0,0
					l-7.9,8.5c-0.1,0.1-0.1,0.2-0.1,0.3c0.1,0.1,0.2,0.1,0.3,0.1l11.3-2.6c0.1-1.2,0.8-2.3,1.9-3c1.1-0.6,2.4-0.7,3.5-0.2l0,0
					c1.7,0.7,3.6,0.7,5.3-0.3l3.2-1.9v16.5h3.2V48.9l2.8-1.6l2.8,1.6v18.3h3.1V50.7l3.2,1.9c1.7,1,3.6,1,5.3,0.3l0,0
					c1.1-0.5,2.4-0.4,3.5,0.2c1.1,0.6,1.8,1.8,1.9,3l0,0l11.3,2.6c0.1,0,0.2,0,0.3-0.1C76.1,58.5,76.1,58.4,76,58.4z M38.7,47.1
					L34,49.9c-1.3,0.8-3,0.3-3.8-1c-0.8-1.3-0.3-3,1-3.8l4.8-2.8l2.8,1.6V47.1z M47.4,42.1l-2.8,1.6l-2.8-1.6v-3.2l2.8-1.6l2.8,1.6
					V42.1z M47.4,32.1l-2.8,1.6l-2.8-1.6v-5.5c0-1.5,1.2-2.8,2.8-2.8c1.5,0,2.8,1.2,2.8,2.8V32.1z M59.1,48.9
					c-0.8,1.3-2.4,1.8-3.8,1l-4.8-2.8v-3.2l2.8-1.6l4.8,2.8C59.4,45.8,59.9,47.5,59.1,48.9z"/>
			</g>
		</g>
	</g>
	<g>
		<g>
			<path d="M341.4,89.9c0,0-3,0.2-6.2,0.5c0.3-0.8,0.7-1.4,1.1-2.3c0,0-4.6,1.1-5.4,2.7c0,0,0,0,0,0c-0.5,0.1-0.9,0.1-1.2,0.1
				c-2.3,0.3-4.2,2.6-4.2,2.6s2-0.2,4.3-0.5c-1.6,3.5-4.3,9-4.3,9l4.5-0.6c1.7-3.8,3-6.6,4.2-9c0.8-0.1,1.5-0.2,2-0.3
				C338.9,91.9,341.4,89.9,341.4,89.9"/>
			<path d="M209.6,100.3c2.5,0,4.2,0.6,5.1,1.7c0.9,1.2,0.8,2.7-0.2,4.7c-1.2,2.3-2.3,4.2-5.2,5.7c-2.9,1.5-5.6,2.2-9.1,2.2
				c-2.5,0-4.2-0.6-5.1-1.8c-0.8-1.2-0.8-2.7,0.2-4.6c1.2-2.3,3.6-4.7,6.5-6.2C204.8,100.5,207.1,100.3,209.6,100.3 M205.3,103.2
				c-1.3,0.7-3.1,2.3-4.1,4.3c-2,3.9-0.4,5.3,1.1,5.2c2.2-0.2,4-1.6,5.4-3.8c1.2-1.8,2-3.3,1.9-4.7
				C209.7,102.9,208.6,101.6,205.3,103.2"/>
			<path d="M158.8,96.6c0,0-3.4-0.1-5.1,1.9c-1.7,2-8,9.2-8,9.2l-1.4-9.8c0,0-3.2,0.4-5.2,1.2l1.8,13l4.6-0.5L158.8,96.6z"/>
			<path d="M151.2,109.4c12.3,1.2,21.4-2.7,20.3-5.7c-0.6-1.5-2.1-2.2-5.8-3.3c-2.3-0.7,1.3-3,8.5-2.7l1.3-1.7c0,0-7.4,0-12.2,1.7
				c-3.7,1.2-5.9,3.6-3.1,4.7c2.8,1.1,5,1.4,5.6,2.6c1.2,2.1-5.6,3.4-12.8,2.8L151.2,109.4z"/>
			<path d="M291,101.5c0,0-1.5,0.9-3.6,1.8c-1.4,0.6-4.4,1.5-5.6,0.9c-1.7-0.8-0.3-2.8-0.3-2.8s9.2-1.7,9.6-1.9
				c0.9-0.4,3.2-4,0.1-5.3c-2.8-1.1-11.1,1.1-13.7,7.1c-1.5,3.5,0.1,4.7,1.6,5.1c4,1.2,8.8-0.7,10.4-2.4L291,101.5z M288.5,95.7
				c1.8-0.2,0.1,2.8-0.8,3.1c-2.1,0.8-5.3,1.1-5.3,1.1S285.1,96.1,288.5,95.7"/>
			<path d="M135.4,107.7c0,0-1.9,1.1-4.6,2.1c-1.8,0.7-5.9,1.7-7.6,1c-2.6-1-1-3.3-1-3.3s12.1-1.5,13.1-2.1c1.1-0.6,3.8-4.6-0.8-6.1
				c-4.2-1.4-15.2,1.1-17.8,8.1c-1.5,4,1.1,5.4,3.2,6c5.8,1.5,12.1-0.7,14.1-2.7L135.4,107.7z M130.8,100.9c2.5-0.2,0.7,3.3-0.5,3.5
				c-2.5,0.5-7.2,1-7.2,1S126.2,101.4,130.8,100.9"/>
			<path d="M308.1,102.2c-2.3,0.7-3.5,0.7-2.4-1.8c0.7-1.7,4.1-7.6,4.1-7.6s-2.7,0.2-4.6,0.4c-6,0.6-9.1,3.6-10.6,5.9
				c-2,3.2-1.6,5.6,0.3,6c2.9,0.6,7.1-3.3,7.1-3.3s-0.6,2.7,2.4,2.5c1.8-0.1,2.9-0.9,2.9-0.9L308.1,102.2z M298.6,101.8
				c-1.5,0.3-1.1-1.8-0.1-3.3c1.6-2.5,4-3.3,6.8-3.4C305.3,95.1,302.9,101,298.6,101.8"/>
			<path d="M241.9,97.7c4.1-0.4,4,0.9,4,0.9c4.6-2.7,8.9-1.8,8.9-1.8s-1.1,1-2.8,1.9c-2.8,1.4-4.5-1-7.2,2.6
				c-1.2,1.7-4.6,8.5-4.6,8.5l-5.3,0.8C237.4,106.1,241.9,97.7,241.9,97.7"/>
			<path d="M314.3,92.4c3.9-0.5,3.4,1.1,3.4,1.1c4.4-2.9,8.6-2.1,8.6-2.1s-1.1,1.1-2.7,1.9c-2.7,1.4-4.4-0.8-7,2.9
				c-1.2,1.7-3.3,7-3.3,7l-4.5,0.6C311.5,98.1,314.3,92.4,314.3,92.4"/>
			<path d="M221.3,112.3c-5.6,0-5-2.9-4.3-4.5c0.5-1.3,1.9-3.7,3-5.6c0,0,0.9-1.3,2.1-2c1.1-0.7,4.4-1.2,4.4-1.2c0,0-2.8,5-4,7.8
				c-0.9,2.2-1.4,3.7,1.7,3.3c2.1-0.3,3.1-1.3,4.8-3.9c1.2-1.9,2.6-4.6,3.2-5.9c0.6-1.2,2.4-1.9,5.8-2c0,0-3.1,5.5-4.6,8.3
				C231.2,110.4,226.2,112.2,221.3,112.3"/>
			<path d="M183.7,120c5.9-9.8,10.9-18.3,17.9-26.3c0,0-5.9,0.2-6.7,1.4l-7.2,10.3c0,0-2.5-7.5-3.1-10.2c0,0-2.9,0.1-4.4,0.8
				c0,0,3.1,9.7,4.4,13.2c0.2,0.5-0.2,1-0.4,1.4c-0.3,0.5-0.6,0.9-0.9,1.3c-6.6,0.7-55.2,5.9-61.7,6.2c-2.9,0.1-9.3-0.2-15.7-3.3
				c-4.6-2.2-6.5-4.1-9.7-5.9c0,0,3.8-0.5,10.3-3c10.6-4,17.6-12.1,3.2-14.4c-11.1-1.7-45.3,4.7-45.3,4.7s2.5,2,6,1.3
				c4.2-0.8,9.4-1.8,14.5-2.5c-3,4.6-13.9,21.2-20.6,30.8c0,0,9.8-0.4,11.2-2.7c0.7-1.1,4.2-7.4,8-14c4.8,2.6,16,9.9,18.3,10.9
				c2.6,1.2,5.6,1.4,9.3,1.2c18.5-1.2,56.7-6.4,71.1-7.6c-3.9,5.8-6.8,10.1-6.8,10.1c18.1-2.5,165.6-18.4,165.6-18.4l6.6-2.1
				C347.5,103.4,219.8,117.2,183.7,120 M91.9,94.4c5.7-0.6,10.8-0.6,13.8,0.2c7.7,2.3-1.1,7.7-6.9,10.1c-6,2.5-13.9,4.1-15.4,4.4
				C86.8,103.2,90.2,97.1,91.9,94.4"/>
			<path d="M275.9,90.1c-1,1.8-2.3,4.4-3.6,7.1l-8.5,1c1.5-3.3,2.7-6.2,3.7-8.3c0,0-2,0.1-3.6,0.4c-1.7,0.3-2.7,0.8-2.7,0.8
				s1,0.4,1.3,1.1c-3,5.6-8.6,17.5-8.6,17.5l5-0.5c1.3-2.9,2.6-5.9,3.8-8.5c2.2-0.5,6.1-1,8.6-1.4c-2.1,4.7-3.9,9-3.9,9l4.5-0.5
				c4.1-10.2,7.8-17.2,8.9-19.1C280.8,88.7,276.8,88.5,275.9,90.1"/>
		</g>
	</g>
</g>
</svg>
